{
  "accessors": [
    {
      "bufferView": 2,
      "componentType": 5126,
      "count": 160,
      "max": [
        1.0,
        3.4953527450561523,
        1.0
      ],
      "min": [
        -1.0,
        -0.5967158079147339,
        -1.0
      ],
      "type": "VEC3"
    },
    {
      "bufferView": 2,
      "byteOffset": 1920,
      "componentType": 5126,
      "count": 160,
      "max": [
        0.9238797426223755,
        1.0,
        0.9238796234130859
      ],
      "min": [
        -0.9238795638084412,
        -1.0,
        -0.9238796830177307
      ],
      "type": "VEC3"
    },
    {
      "bufferView": 1,
      "componentType": 5126,
      "count": 160,
      "max": [
        1.0,
        1.0
      ],
      "min": [
        0.0,
        0.01000000536441803
      ],
      "type": "VEC2"
    },
    {
      "bufferView": 0,
      "componentType": 5125,
      "count": 276,
      "type": "SCALAR"
    },
    {
      "bufferView": 2,
      "byteOffset": 3840,
      "componentType": 5126,
      "count": 2546,
      "max": [
        1.0,
        5.573580265045166,
        1.0
      ],
      "min": [
        -1.0,
        -1.0,
        -1.0
      ],
      "type": "VEC3"
    },
    {
      "bufferView": 2,
      "byteOffset": 34392,
      "componentType": 5126,
      "count": 2546,
      "max": [
        0.9987072944641113,
        1.0,
        0.9987071752548218
      ],
      "min": [
        -0.9987072348594666,
        -1.0,
        -0.9987072348594666
      ],
      "type": "VEC3"
    },
    {
      "bufferView": 1,
      "byteOffset": 1280,
      "componentType": 5126,
      "count": 2546,
      "max": [
        1.0,
        1.0
      ],
      "min": [
        0.0,
        0.0
      ],
      "type": "VEC2"
    },
    {
      "bufferView": 0,
      "byteOffset": 1104,
      "componentType": 5125,
      "count": 4200,
      "type": "SCALAR"
    },
    {
      "bufferView": 2,
      "byteOffset": 64944,
      "componentType": 5126,
      "count": 1632,
      "max": [
        1.5466235876083374,
        2.00949764251709,
        1.5466240644454956
      ],
      "min": [
        -1.5466235876083374,
        -13.188934326171875,
        -1.5466231107711792
      ],
      "type": "VEC3"
    },
    {
      "bufferView": 2,
      "byteOffset": 84528,
      "componentType": 5126,
      "count": 1632,
      "max": [
        0.9967186450958252,
        1.0,
        0.9970659017562866
      ],
      "min": [
        -0.99671870470047,
        -1.0,
        -0.9967187643051147
      ],
      "type": "VEC3"
    },
    {
      "bufferView": 1,
      "byteOffset": 21648,
      "componentType": 5126,
      "count": 1632,
      "max": [
        1.0,
        1.0
      ],
      "min": [
        0.0,
        0.0
      ],
      "type": "VEC2"
    },
    {
      "bufferView": 0,
      "byteOffset": 17904,
      "componentType": 5125,
      "count": 2838,
      "type": "SCALAR"
    },
    {
      "bufferView": 2,
      "byteOffset": 104112,
      "componentType": 5126,
      "count": 96,
      "max": [
        1.0152782201766968,
        -0.5967158079147339,
        1.015278935432434
      ],
      "min": [
        -1.0152782201766968,
        -9.31620979309082,
        -1.0152775049209595
      ],
      "type": "VEC3"
    },
    {
      "bufferView": 2,
      "byteOffset": 105264,
      "componentType": 5126,
      "count": 96,
      "max": [
        0.9236894249916077,
        0.020288046449422836,
        0.9236894845962524
      ],
      "min": [
        -0.9236894249916077,
        0.020287884399294853,
        -0.9236894249916077
      ],
      "type": "VEC3"
    },
    {
      "bufferView": 1,
      "byteOffset": 34704,
      "componentType": 5126,
      "count": 96,
      "max": [
        0.9477031826972961,
        0.4477030634880066
      ],
      "min": [
        0.5522969365119934,
        0.05229694023728371
      ],
      "type": "VEC2"
    },
    {
      "bufferView": 0,
      "byteOffset": 29256,
      "componentType": 5125,
      "count": 237,
      "type": "SCALAR"
    }
  ],
  "asset": {
    "extras": {
      "author": "JGL_05 (https://sketchfab.com/JGL_05)",
      "license": "CC-BY-4.0 (http://creativecommons.org/licenses/by/4.0/)",
      "source": "https://sketchfab.com/3d-models/lamppost-bc8ab58e277e4917a0b5aec90067b3bf",
      "title": "Lamppost"
    },
    "generator": "Sketchfab-15.13.0",
    "version": "2.0"
  },
  "bufferViews": [
    {
      "buffer": 0,
      "byteLength": 30204,
      "name": "floatBufferViews",
      "target": 34963
    },
    {
      "buffer": 0,
      "byteLength": 35472,
      "byteOffset": 30204,
      "byteStride": 8,
      "name": "floatBufferViews",
      "target": 34962
    },
    {
      "buffer": 0,
      "byteLength": 106416,
      "byteOffset": 65676,
      "byteStride": 12,
      "name": "floatBufferViews",
      "target": 34962
    }
  ],
  "buffers": [
    {
      "byteLength": 172092,
      "uri": "scene.bin"
    }
  ],
  "materials": [
    {
      "doubleSided": true,
      "name": "Material.001",
      "pbrMetallicRoughness": {
        "baseColorFactor": [
          0.0179041,
          0.0179041,
          0.0179041,
          1.0
        ],
        "metallicFactor": 0.559091,
        "roughnessFactor": 0.381818
      }
    },
    {
      "doubleSided": true,
      "emissiveFactor": [
        0.4833,
        0.302201,
        0.0166092
      ],
      "name": "Material.003",
      "pbrMetallicRoughness": {
        "baseColorFactor": [
          0.404199,
          0.261139,
          0.0291332,
          1.0
        ],
        "metallicFactor": 0.0,
        "roughnessFactor": 0.0727273
      }
    }
  ],
  "meshes": [
    {
      "name": "Object_0",
      "primitives": [
        {
          "attributes": {
            "NORMAL": 1,
            "POSITION": 0,
            "TEXCOORD_0": 2
          },
          "indices": 3,
          "material": 0,
          "mode": 4
        }
      ]
    },
    {
      "name": "Object_1",
      "primitives": [
        {
          "attributes": {
            "NORMAL": 5,
            "POSITION": 4,
            "TEXCOORD_0": 6
          },
          "indices": 7,
          "material": 0,
          "mode": 4
        }
      ]
    },
    {
      "name": "Object_2",
      "primitives": [
        {
          "attributes": {
            "NORMAL": 9,
            "POSITION": 8,
            "TEXCOORD_0": 10
          },
          "indices": 11,
          "material": 0,
          "mode": 4
        }
      ]
    },
    {
      "name": "Object_3",
      "primitives": [
        {
          "attributes": {
            "NORMAL": 13,
            "POSITION": 12,
            "TEXCOORD_0": 14
          },
          "indices": 15,
          "material": 1,
          "mode": 4
        }
      ]
    }
  ],
  "nodes": [
    {
      "children": [
        1
      ],
      "matrix": [
        1.0,
        0.0,
        0.0,
        0.0,
        0.0,
        2.220446049250313e-16,
        -1.0,
        0.0,
        0.0,
        1.0,
        2.220446049250313e-16,
        0.0,
        0.0,
        0.0,
        0.0,
        1.0
      ],
      "name": "Sketchfab_model"
    },
    {
      "children": [
        2
      ],
      "name": "root"
    },
    {
      "children": [
        3,
        5,
        7
      ],
      "matrix": [
        1.0,
        0.0,
        0.0,
        0.0,
        0.0,
        2.220446049250313e-16,
        1.0,
        0.0,
        0.0,
        -1.0,
        2.220446049250313e-16,
        0.0,
        0.0,
        0.0,
        0.0,
        1.0
      ],
      "name": "GLTF_SceneRootNode"
    },
    {
      "children": [
        4
      ],
      "matrix": [
        0.7982046008110046,
        0.0,
        0.0,
        0.0,
        0.0,
        0.197904571890831,
        0.0,
        0.0,
        0.0,
        0.0,
        0.7982046008110046,
        0.0,
        0.0,
        0.0,
        0.0,
        1.0
      ],
      "name": "Cylinder_2"
    },
    {
      "mesh": 0,
      "name": "Object_4"
    },
    {
      "children": [
        6
      ],
      "matrix": [
        0.2775876224040985,
        0.0,
        0.0,
        0.0,
        0.0,
        0.9508212208747864,
        0.0,
        0.0,
        0.0,
        0.0,
        0.2775876224040985,
        0.0,
        0.0,
        1.3023301362991333,
        0.0,
        1.0
      ],
      "name": "Cylinder.001_3"
    },
    {
      "mesh": 1,
      "name": "Object_6"
    },
    {
      "children": [
        8,
        9
      ],
      "matrix": [
        0.3011085093021393,
        0.0,
        0.0,
        0.0,
        0.0,
        -0.07465598732232649,
        -2.432600917929138e-08,
        0.0,
        0.0,
        9.811360915530562e-08,
        -0.30110850930212324,
        0.0,
        0.0,
        6.595204830169678,
        0.0,
        1.0
      ],
      "name": "Cylinder.002_4"
    },
    {
      "mesh": 2,
      "name": "Object_8"
    },
    {
      "mesh": 3,
      "name": "Object_9"
    }
  ],
  "scene": 0,
  "scenes": [
    {
      "name": "Sketchfab_Scene",
      "nodes": [
        0
      ]
    }
  ]
}
